<mxfile host="Electron" agent="Mozilla/5.0 (Windows NT 10.0; Win64; x64) AppleWebKit/537.36 (KHTML, like Gecko) draw.io/26.0.9 Chrome/128.0.6613.186 Electron/32.2.5 Safari/537.36" version="26.0.9">
  <diagram name="Page-1" id="aOw4H9urlCronISh_hng">
    <mxGraphModel dx="743" dy="472" grid="1" gridSize="10" guides="1" tooltips="1" connect="1" arrows="1" fold="1" page="1" pageScale="1" pageWidth="850" pageHeight="1100" background="none" math="0" shadow="0">
      <root>
        <mxCell id="0" />
        <mxCell id="1" parent="0" />
        <mxCell id="Z6zjtGq67yhSxpQZ302D-2" style="edgeStyle=orthogonalEdgeStyle;rounded=0;orthogonalLoop=1;jettySize=auto;html=1;" edge="1" parent="1" source="MuPUMAWdGLEorcMx6kFS-1">
          <mxGeometry relative="1" as="geometry">
            <mxPoint x="360" y="155" as="targetPoint" />
          </mxGeometry>
        </mxCell>
        <mxCell id="MuPUMAWdGLEorcMx6kFS-1" value="" style="verticalLabelPosition=bottom;sketch=0;aspect=fixed;html=1;verticalAlign=top;strokeColor=none;align=center;outlineConnect=0;shape=mxgraph.citrix.thin_client;" parent="1" vertex="1">
          <mxGeometry x="80" y="130" width="50" height="50" as="geometry" />
        </mxCell>
        <mxCell id="Z6zjtGq67yhSxpQZ302D-6" style="edgeStyle=orthogonalEdgeStyle;rounded=0;orthogonalLoop=1;jettySize=auto;html=1;" edge="1" parent="1">
          <mxGeometry relative="1" as="geometry">
            <mxPoint x="700" y="155" as="targetPoint" />
            <mxPoint x="430" y="154.86" as="sourcePoint" />
            <Array as="points">
              <mxPoint x="440" y="154.86" />
              <mxPoint x="440" y="154.86" />
            </Array>
          </mxGeometry>
        </mxCell>
        <mxCell id="Z6zjtGq67yhSxpQZ302D-1" value="" style="verticalLabelPosition=bottom;sketch=0;aspect=fixed;html=1;verticalAlign=top;strokeColor=none;align=center;outlineConnect=0;shape=mxgraph.citrix.thin_client;" vertex="1" parent="1">
          <mxGeometry x="370" y="130" width="50" height="50" as="geometry" />
        </mxCell>
        <mxCell id="Z6zjtGq67yhSxpQZ302D-3" value="1. call api update order status" style="text;html=1;align=center;verticalAlign=middle;resizable=0;points=[];autosize=1;strokeColor=none;fillColor=none;" vertex="1" parent="1">
          <mxGeometry x="150" y="130" width="180" height="30" as="geometry" />
        </mxCell>
        <mxCell id="Z6zjtGq67yhSxpQZ302D-4" value="2. update order status (old logic + refactor transaction)&lt;div&gt;3. prepare data event payload&lt;/div&gt;&lt;div&gt;4. save saga + outbox&amp;nbsp;&lt;/div&gt;" style="text;html=1;align=center;verticalAlign=middle;resizable=0;points=[];autosize=1;strokeColor=none;fillColor=none;" vertex="1" parent="1">
          <mxGeometry x="240" y="40" width="310" height="60" as="geometry" />
        </mxCell>
        <mxCell id="Z6zjtGq67yhSxpQZ302D-14" style="edgeStyle=orthogonalEdgeStyle;rounded=0;orthogonalLoop=1;jettySize=auto;html=1;" edge="1" parent="1">
          <mxGeometry relative="1" as="geometry">
            <mxPoint x="430" y="170" as="targetPoint" />
            <mxPoint x="700" y="170" as="sourcePoint" />
          </mxGeometry>
        </mxCell>
        <mxCell id="Z6zjtGq67yhSxpQZ302D-7" value="" style="sketch=0;outlineConnect=0;fontColor=#232F3E;gradientColor=none;fillColor=#E7157B;strokeColor=none;dashed=0;verticalLabelPosition=bottom;verticalAlign=top;align=center;html=1;fontSize=12;fontStyle=0;aspect=fixed;pointerEvents=1;shape=mxgraph.aws4.queue;" vertex="1" parent="1">
          <mxGeometry x="720" y="130" width="78" height="47" as="geometry" />
        </mxCell>
        <mxCell id="Z6zjtGq67yhSxpQZ302D-9" style="edgeStyle=orthogonalEdgeStyle;rounded=0;orthogonalLoop=1;jettySize=auto;html=1;" edge="1" parent="1" source="Z6zjtGq67yhSxpQZ302D-8">
          <mxGeometry relative="1" as="geometry">
            <mxPoint x="395" y="190" as="targetPoint" />
          </mxGeometry>
        </mxCell>
        <mxCell id="Z6zjtGq67yhSxpQZ302D-8" value="" style="aspect=fixed;sketch=0;html=1;dashed=0;whitespace=wrap;verticalLabelPosition=bottom;verticalAlign=top;fillColor=#2875E2;strokeColor=#ffffff;points=[[0.005,0.63,0],[0.1,0.2,0],[0.9,0.2,0],[0.5,0,0],[0.995,0.63,0],[0.72,0.99,0],[0.5,1,0],[0.28,0.99,0]];shape=mxgraph.kubernetes.icon2;prIcon=cronjob" vertex="1" parent="1">
          <mxGeometry x="370" y="270" width="50" height="48" as="geometry" />
        </mxCell>
        <mxCell id="Z6zjtGq67yhSxpQZ302D-10" value="5. trigger api publish" style="text;html=1;align=center;verticalAlign=middle;resizable=0;points=[];autosize=1;strokeColor=none;fillColor=none;" vertex="1" parent="1">
          <mxGeometry x="390" y="210" width="130" height="30" as="geometry" />
        </mxCell>
        <mxCell id="Z6zjtGq67yhSxpQZ302D-11" value="6. publish event payload" style="text;html=1;align=center;verticalAlign=middle;resizable=0;points=[];autosize=1;strokeColor=none;fillColor=none;" vertex="1" parent="1">
          <mxGeometry x="485" y="130" width="150" height="30" as="geometry" />
        </mxCell>
        <mxCell id="Z6zjtGq67yhSxpQZ302D-15" value="7. consume event payload + process aggregate order status" style="text;html=1;align=center;verticalAlign=middle;resizable=0;points=[];autosize=1;strokeColor=none;fillColor=none;" vertex="1" parent="1">
          <mxGeometry x="400" y="170" width="340" height="30" as="geometry" />
        </mxCell>
        <mxCell id="Z6zjtGq67yhSxpQZ302D-18" value="Client" style="text;html=1;align=center;verticalAlign=middle;resizable=0;points=[];autosize=1;strokeColor=none;fillColor=none;" vertex="1" parent="1">
          <mxGeometry x="80" y="186" width="50" height="30" as="geometry" />
        </mxCell>
        <mxCell id="Z6zjtGq67yhSxpQZ302D-19" value="MessageQueue" style="text;html=1;align=center;verticalAlign=middle;resizable=0;points=[];autosize=1;strokeColor=none;fillColor=none;" vertex="1" parent="1">
          <mxGeometry x="790" y="138.5" width="110" height="30" as="geometry" />
        </mxCell>
        <mxCell id="Z6zjtGq67yhSxpQZ302D-20" value="CronJob (interval)" style="text;html=1;align=center;verticalAlign=middle;resizable=0;points=[];autosize=1;strokeColor=none;fillColor=none;" vertex="1" parent="1">
          <mxGeometry x="335" y="318" width="120" height="30" as="geometry" />
        </mxCell>
        <mxCell id="Z6zjtGq67yhSxpQZ302D-21" value="Order Service" style="text;html=1;align=center;verticalAlign=middle;resizable=0;points=[];autosize=1;strokeColor=none;fillColor=none;" vertex="1" parent="1">
          <mxGeometry x="345" y="100" width="100" height="30" as="geometry" />
        </mxCell>
      </root>
    </mxGraphModel>
  </diagram>
</mxfile>
